<svg width="30" height="30" viewBox="0 0 30 30" fill="none" xmlns="http://www.w3.org/2000/svg">
<rect width="30" height="30" fill="#222222"/>
<path d="M12.9161 20.624V16.76H9.19613C9.02013 16.76 8.86813 16.696 8.74013 16.568C8.61213 16.44 8.54813 16.288 8.54813 16.112V13.496C8.54813 13.32 8.61213 13.168 8.74013 13.04C8.86813 12.912 9.02013 12.848 9.19613 12.848H12.9161V9.104C12.9161 8.928 12.9801 8.776 13.1081 8.648C13.2361 8.52 13.3881 8.456 13.5641 8.456H16.4921C16.6681 8.456 16.8201 8.52 16.9481 8.648C17.0761 8.776 17.1401 8.928 17.1401 9.104V12.848H20.8121C20.9881 12.848 21.1401 12.912 21.2681 13.04C21.3961 13.168 21.4601 13.32 21.4601 13.496V16.112C21.4601 16.288 21.3961 16.44 21.2681 16.568C21.1401 16.696 20.9881 16.76 20.8121 16.76H17.1401V20.624C17.1401 20.8 17.0761 20.952 16.9481 21.08C16.8201 21.208 16.6681 21.272 16.4921 21.272H13.5641C13.3881 21.272 13.2361 21.208 13.1081 21.08C12.9801 20.952 12.9161 20.8 12.9161 20.624Z" fill="white"/>
</svg>
